<?xml version="1.0" encoding="UTF-8" standalone="no"?>
<svg
   xmlns:dc="http://purl.org/dc/elements/1.1/"
   xmlns:cc="http://creativecommons.org/ns#"
   xmlns:rdf="http://www.w3.org/1999/02/22-rdf-syntax-ns#"
   xmlns:svg="http://www.w3.org/2000/svg"
   xmlns="http://www.w3.org/2000/svg"
   xmlns:sodipodi="http://sodipodi.sourceforge.net/DTD/sodipodi-0.dtd"
   xmlns:inkscape="http://www.inkscape.org/namespaces/inkscape"
   width="338.66666mm"
   height="338.66666mm"
   viewBox="0 0 1280 1280"
   version="1.1"
   id="svg219"
   inkscape:version="1.0 (4035a4fb49, 2020-05-01)"
   sodipodi:docname="logos.svg">
  <defs
     id="defs213">
    <mask
       id="mask1056"
       maskUnits="userSpaceOnUse">
      <rect
         style="opacity:1;fill:#ffffff;fill-rule:evenodd;stroke-width:5.0859;stroke-linecap:round"
         id="rect1058"
         width="400"
         height="300"
         x="1250.4248"
         y="1330.9977" />
    </mask>
  </defs>
  <sodipodi:namedview
     id="base"
     pagecolor="#262626"
     bordercolor="#666666"
     borderopacity="1.0"
     inkscape:pageopacity="0"
     inkscape:pageshadow="2"
     inkscape:zoom="0.98994949"
     inkscape:cx="830.08836"
     inkscape:cy="1502.388"
     inkscape:document-units="px"
     inkscape:current-layer="layer2"
     inkscape:document-rotation="0"
     showgrid="false"
     fit-margin-top="0"
     fit-margin-left="0"
     fit-margin-right="0"
     fit-margin-bottom="0"
     inkscape:showpageshadow="false"
     inkscape:window-width="1920"
     inkscape:window-height="1057"
     inkscape:window-x="-8"
     inkscape:window-y="-8"
     inkscape:window-maximized="1"
     showguides="true"
     inkscape:guide-bbox="true" />
  <metadata
     id="metadata216">
    <rdf:RDF>
      <cc:Work
         rdf:about="">
        <dc:format>image/svg+xml</dc:format>
        <dc:type
           rdf:resource="http://purl.org/dc/dcmitype/StillImage" />
        <dc:title />
      </cc:Work>
    </rdf:RDF>
  </metadata>
  <g
     sodipodi:insensitive="true"
     inkscape:label="Canvas"
     inkscape:groupmode="layer"
     id="layer1"
     transform="translate(260,77.14286)">
    <rect
       style="fill:#ffffff;stroke-width:1.5;stroke-linecap:round"
       id="rect2128"
       width="1280"
       height="1280"
       x="-260"
       y="-77.14286" />
  </g>
  <g
     inkscape:groupmode="layer"
     id="layer2"
     inkscape:label="Contents">
    <g
       id="g918"
       inkscape:export-filename="E:\HARDDRIVE\Tanveer\Internal\APIProjects\transformers-api\logos\quintesson.png"
       inkscape:export-xdpi="129.12384"
       inkscape:export-ydpi="129.12384">
      <path
         id="path906"
         d="m 360.28642,955.7956 c -8.1559,-12.36473 -14.461,-25.58187 -17.2709,-36.20369 -0.9662,-3.65252 -2.0759,-9.35309 -1.8623,-9.56667 0.06,-0.0601 0.6777,0.72098 1.3724,1.73581 6.1823,9.03063 13.1576,15.24779 19.1207,17.0424 0.8052,0.24235 1.4899,0.40967 1.5216,0.37181 0.032,-0.0378 1.5159,-2.8264 3.2981,-6.19681 l 3.2404,-6.12802 h 16.1722 16.1721 l 3.2404,6.12802 c 1.7822,3.37041 3.2664,6.15898 3.2981,6.19681 0.032,0.0379 0.7164,-0.12946 1.5217,-0.37181 5.963,-1.79461 12.9383,-8.01177 19.1206,-17.0424 0.6947,-1.01483 1.3123,-1.79593 1.3724,-1.73581 0.2136,0.21358 -0.8961,5.91415 -1.8623,9.56667 -1.4243,5.38427 -3.8261,11.60724 -7.0332,18.22279 -3.4333,7.08238 -5.8586,11.342 -10.2377,17.9809 l -3.3506,5.0798 h -22.2415 -22.2415 z m -33.269,-29.31725 c -6.7409,-6.30582 -13.0866,-12.23784 -14.1018,-13.1822 l -1.8457,-1.71707 0.9438,-2.08165 c 1.6396,-3.61595 2.3034,-6.72627 2.4956,-11.69355 0.1326,-3.42525 0.044,-5.30626 -0.3641,-7.69805 -1.0499,-6.1593 -3.6499,-12.70728 -7.4196,-18.6859 -0.9907,-1.57129 -1.8014,-2.92558 -1.8014,-3.0095 0,-0.20149 4.755,2.38889 9.1921,5.00755 4.6457,2.74181 8.8324,5.53505 11.5303,7.6926 l 2.1771,1.74103 v 2.05685 c 0,3.51748 0.6366,11.71954 1.3153,16.94446 1.652,12.71979 4.8285,24.5457 8.9624,33.36734 0.7103,1.51565 1.2645,2.74838 1.2317,2.73948 -0.033,-0.009 -5.5749,-5.17556 -12.3157,-11.48139 z m 106.603,8.82254 c 4.1784,-8.93329 7.3404,-20.68776 8.9977,-33.44797 0.6787,-5.22492 1.3153,-13.42698 1.3153,-16.94446 v -2.05685 l 2.1771,-1.74103 c 2.6979,-2.15755 6.8846,-4.95079 11.5303,-7.6926 4.4371,-2.61866 9.1921,-5.20904 9.1921,-5.00755 0,0.0839 -0.8106,1.43821 -1.8014,3.0095 -3.7697,5.97862 -6.3697,12.5266 -7.4196,18.6859 -0.4077,2.39179 -0.4967,4.2728 -0.3641,7.69805 0.1926,4.97698 0.8559,8.07734 2.5072,11.71928 0.5256,1.15907 0.918,2.13346 0.8721,2.16532 -0.2383,0.16546 -24.8715,23.10259 -26.4645,24.6423 l -1.8688,1.80644 z m -80.4784,-32.6918 c -6.1438,-5.04481 -12.1575,-12.50488 -15.5749,-19.32097 l -1.3034,-2.5997 1.0888,-2.03789 c 3.2034,-5.99568 10.6232,-13.27031 19.6599,-19.27538 3.4645,-2.30226 8.3239,-5.16846 10.878,-6.41622 l 1.8473,-0.90247 7.9875,-13.32123 c 4.3932,-7.32669 8.0622,-13.32125 8.1534,-13.32125 0.091,0 3.7601,5.99456 8.1533,13.32125 l 7.9875,13.32123 1.8473,0.90247 c 4.2259,2.06443 11.399,6.56158 16.1975,10.15489 3.2498,2.43363 9.2572,8.28379 11.4611,11.16128 0.9848,1.28566 2.2805,3.25462 2.8793,4.37543 l 1.0888,2.03789 -1.3034,2.5997 c -3.4174,6.81609 -9.4311,14.27616 -15.5749,19.32097 l -2.2577,1.85382 -0.085,-10.83602 -0.085,-10.83604 -2.8179,0.20319 c -1.5497,0.11175 -2.9629,0.24651 -3.1403,0.29943 -0.1774,0.053 -1.6896,3.21428 -3.3605,7.02513 l -3.0379,6.92889 -8.9762,0.16172 c -4.9369,0.089 -13.0155,0.089 -17.9524,0 l -8.9762,-0.16172 -3.0379,-6.92889 c -1.6709,-3.81085 -3.1831,-6.97217 -3.3605,-7.02513 -0.1774,-0.0529 -1.5905,-0.18768 -3.1403,-0.29943 l -2.8178,-0.20319 -0.085,10.83604 -0.085,10.83602 z m 27.1445,-39.79099 5.5921,-2.91175 5.6617,2.94803 c 3.1139,1.62144 5.7381,2.87165 5.8314,2.77825 0.1861,-0.18603 -11.212,-22.47966 -11.4931,-22.47966 -0.1758,0 -11.611,22.05386 -11.611,22.3929 0,0.37049 0.5304,0.13011 6.0189,-2.72777 z m -51.6734,7.34078 c -15.4692,-13.82909 -30.676,-24.41085 -38.7233,-26.94572 l -2.2946,-0.72282 -1.4895,-4.90975 c -2.639,-8.69878 -4.6019,-17.40417 -5.9069,-26.19654 -0.4372,-2.94561 -0.5767,-5.92522 -0.5837,-12.47093 -0.01,-4.73033 0.073,-8.68339 0.1746,-8.78458 0.1012,-0.1012 3.7716,1.14594 8.1565,2.7714 6.4984,2.40893 7.9343,3.04923 7.7653,3.46289 -0.429,1.05063 -0.5507,13.473 -0.1678,17.14078 1.5112,14.47785 6.83,24.09918 15.6698,28.34613 3.6603,1.75854 6.1029,2.30707 11.1272,2.49884 6.6637,0.25435 13.4592,-1.09669 22.355,-4.44442 6.2945,-2.36881 15.5736,-6.95393 22.6375,-11.18597 1.7739,-1.06275 3.2781,-1.88583 3.3426,-1.82906 0.229,0.20166 -1.3247,4.851 -2.4047,7.1955 -1.3834,3.00331 -4.051,7.02639 -6.4479,9.72427 -1.3567,1.52703 -2.249,2.22447 -3.3319,2.60431 -4.1292,1.4483 -9.7441,4.93492 -12.7795,7.93558 -0.8936,0.88337 -4.4346,4.93031 -7.8688,8.99319 -3.4342,4.06287 -6.4842,7.64463 -6.7778,7.95942 -0.5069,0.54342 -0.6308,0.48566 -2.4521,-1.14252 z m 105.946,-6.09028 c -7.5618,-8.93455 -9.282,-10.72877 -12.3962,-12.92924 -2.4398,-1.72394 -6.5258,-3.89442 -8.8971,-4.72615 -3.479,-1.22025 -9.4608,-10.02854 -11.5892,-17.06541 -0.3919,-1.2955 -0.6598,-2.4019 -0.5952,-2.45867 0.064,-0.0568 1.5686,0.76631 3.3425,1.82906 13.3805,8.01634 26.3003,13.33342 36.7681,15.1317 4.5939,0.78922 11.1959,0.69295 14.6749,-0.21403 11.6345,-3.03292 18.5936,-13.33901 20.3465,-30.13225 0.3829,-3.66778 0.2612,-16.09015 -0.1678,-17.14078 -0.169,-0.41366 1.2669,-1.05396 7.7653,-3.46289 4.3849,-1.62546 8.0554,-2.8726 8.1565,-2.7714 0.1011,0.10119 0.1797,4.05425 0.1746,8.78458 -0.01,6.54571 -0.1464,9.52532 -0.5837,12.47093 -1.305,8.79237 -3.2679,17.49776 -5.9069,26.19654 l -1.4894,4.90975 -2.2947,0.72282 c -7.4358,2.34225 -20.2816,11.03381 -34.6762,23.46201 -2.377,2.05224 -4.7137,4.05142 -5.1928,4.44265 l -0.8711,0.71133 z m -113.3789,-29.13547 c -8.8787,-1.93165 -14.8258,-11.15597 -16.7555,-25.98885 -0.2722,-2.0922 -0.4525,-4.95028 -0.4008,-6.35129 l 0.094,-2.54729 5.9667,2.81294 c 4.7531,2.24079 6.0118,2.9675 6.1884,3.57276 0.1218,0.41789 0.5931,2.28374 1.0473,4.14633 2.912,11.94257 9.8727,16.01234 19.7867,11.56898 2.1381,-0.95826 5.9587,-3.32223 7.7448,-4.79205 l 1.0631,-0.87486 6.0922,1.81217 c 3.3507,0.9967 6.1803,1.90026 6.2879,2.00791 0.1077,0.10765 -1.2254,1.21713 -2.9624,2.46551 -13.8632,9.96352 -25.3967,14.07265 -34.1525,12.16774 z m 119.2054,-0.14859 c -6.6277,-1.40798 -15.1328,-5.67423 -23.9611,-12.01915 -1.737,-1.24838 -3.0701,-2.35786 -2.9625,-2.46551 0.1077,-0.10765 2.9373,-1.01121 6.2879,-2.00791 l 6.0922,-1.81217 1.0631,0.87486 c 0.5847,0.48118 2.1105,1.55187 3.3907,2.37932 12.1162,7.8316 20.8019,4.53726 24.1409,-9.15625 0.4542,-1.86259 0.9254,-3.72844 1.0473,-4.14633 0.1765,-0.60526 1.4352,-1.33197 6.1883,-3.57276 l 5.9668,-2.81294 0.094,2.54729 c 0.2143,5.80443 -1.7687,15.51205 -4.2155,20.63653 -4.7985,10.05005 -12.3828,13.83857 -23.1321,11.55502 z m -60.4714,-19.73936 c -13.2207,-1.6933 -38.0629,-9.79965 -69.2651,-22.60207 -5.0273,-2.06272 -6.3699,-2.73885 -6.3699,-3.20779 0,-0.32679 0.4257,-2.51618 0.946,-4.86529 2.8395,-12.82051 6.3444,-32.28821 7.7659,-43.13563 0.8074,-6.16135 1.212,-16.65442 0.7114,-18.45134 l -0.3332,-1.19615 2.0738,-1.82067 2.0738,-1.82068 1.7702,1.33653 c 8.1617,6.16219 19.3381,17.21323 26.2236,25.92955 7.032,8.90181 13.3062,19.55588 16.9839,28.8399 l 1.5651,3.95095 h 21.8189 21.8188 l 1.5651,-3.95095 c 3.6777,-9.28402 9.9519,-19.93809 16.9839,-28.8399 6.8855,-8.71632 18.0619,-19.76736 26.2236,-25.92955 l 1.7702,-1.33653 2.0738,1.82068 2.0738,1.82067 -0.3332,1.19615 c -0.5006,1.79692 -0.096,12.28999 0.7114,18.45134 1.4215,10.84742 4.9264,30.31512 7.7659,43.13563 0.5203,2.34911 0.946,4.5385 0.946,4.86529 0,0.46894 -1.3426,1.14507 -6.3699,3.20779 -31.7802,13.03961 -56.216,20.97113 -69.738,22.63603 -3.1867,0.39236 -8.2443,0.37737 -11.4558,-0.034 z m -91.7614,-32.12163 c -3.8138,-1.34504 -6.9953,-2.49506 -7.0698,-2.55559 -0.2572,-0.20888 2.3308,-9.31589 4.24,-14.92025 3.652,-10.72022 7.8468,-19.58182 12.7595,-26.95479 l 2.7938,-4.19285 0.2789,1.7739 c 0.37,2.35363 0.033,13.87503 -0.5677,19.42027 -0.9167,8.45944 -4.5658,28.94909 -5.2822,29.65871 -0.12,0.11886 -3.3386,-0.88437 -7.1525,-2.2294 z m 188.2321,2.23513 c -0.081,-0.1303 -0.8009,-3.42655 -1.6008,-7.32498 -1.6441,-8.01285 -2.9096,-15.83435 -3.6145,-22.33946 -0.6009,-5.54524 -0.9377,-17.06664 -0.5677,-19.42027 l 0.2789,-1.7739 2.7938,4.19285 c 6.2515,9.38219 11.6444,21.86473 15.5979,36.10336 0.7851,2.82742 1.4274,5.30145 1.4274,5.49784 0,0.19639 -0.9071,0.6611 -2.0158,1.03269 -1.1087,0.3716 -4.2966,1.48409 -7.0843,2.47221 -2.7877,0.98812 -5.1344,1.68997 -5.2149,1.55966 z m -97.3511,-17.14781 -6.6836,-0.16798 -3.351,-5.52505 c -13.4687,-22.20669 -27.9761,-40.64953 -39.0282,-49.61542 -1.8834,-1.52788 -2.0781,-1.30485 3.6582,-4.19104 11.6752,-5.87444 25.3317,-9.67064 41.9285,-11.65523 18.6718,-2.23271 44.5483,2.5874 62.5702,11.65523 5.7363,2.88619 5.5416,2.66316 3.6582,4.19104 -11.3909,9.24075 -27.1155,29.45318 -40.5764,52.15709 l -1.8645,3.14464 h -6.3844 c -3.5115,0 -6.5777,0.0393 -6.814,0.0874 -0.2362,0.048 -3.4371,0.0118 -7.113,-0.0806 z m 12.7309,-17.73067 c 3.1486,-6.19193 5.7248,-11.41342 5.7248,-11.6033 0,-0.23891 -3.5761,-0.34524 -11.6109,-0.34524 -8.0349,0 -11.611,0.10633 -11.611,0.34524 0,0.43312 11.391,22.86137 11.611,22.86137 0.089,0 2.7374,-5.06613 5.8861,-11.25807 z"
         style="fill:#479e1b;fill-opacity:1;stroke-width:0.322527" />
      <rect
         ry="0"
         y="642.72681"
         x="200.01021"
         height="371.73615"
         width="371.73615"
         id="rect910"
         style="opacity:0;fill:#212048;fill-rule:evenodd;stroke-width:3.806;stroke-linecap:round" />
    </g>
    <g
       id="g1016"
       inkscape:export-filename="E:\HARDDRIVE\Tanveer\Internal\APIProjects\transformers-api\logos\unicron.png"
       inkscape:export-xdpi="129.12384"
       inkscape:export-ydpi="129.12384">
      <path
         d="m 752.69146,711.11458 v 234.96059 l 0.0349,-45.86029 c 0.0283,-36.44803 0.22821,-45.4254 0.9757,-43.74102 0.51732,1.16567 7.43924,8.1607 15.38183,15.54338 9.672,8.99028 15.31831,14.8625 17.09694,17.78458 2.95526,4.85495 9.90425,20.34318 16.84232,37.539 4.72801,11.71836 5.83184,13.52624 8.79857,14.41213 1.43179,0.42749 1.91418,0.11907 2.61617,-1.67408 1.39698,-3.56808 4.21331,-13.5317 9.20565,-32.56565 2.57874,-9.83178 4.98405,-18.17196 5.34529,-18.5331 0.36115,-0.36125 2.66059,-1.05865 5.11044,-1.55053 4.32419,-0.86843 4.54553,-0.82826 7.58494,1.35997 9.60357,6.91428 13.39877,9.11726 18.23592,10.58833 4.7602,1.44762 5.83609,1.52446 9.60957,0.67994 5.32587,-1.19179 11.10129,-4.20687 17.86529,-9.32744 5.79429,-4.38642 5.61978,-4.3384 11.28212,-3.12401 2.85879,0.61304 4.19388,1.33346 4.70193,2.53694 0.39028,0.9243 2.81807,9.75942 5.39561,19.63399 4.97729,19.06843 7.13932,26.73817 8.54078,30.30156 0.70503,1.79271 1.1895,2.10147 2.62086,1.67408 2.96673,-0.88589 4.07045,-2.69377 8.79846,-14.41213 6.93807,-17.19582 13.88564,-32.68405 16.8409,-37.539 1.77863,-2.92208 7.42494,-8.7943 17.09683,-17.78458 7.9427,-7.38268 14.86451,-14.37771 15.38182,-15.54338 0.7475,-1.68438 0.94788,7.29299 0.97582,43.74102 l 0.0349,45.86029 V 711.11458 l -0.0895,71.22974 c -0.0502,39.17633 -0.25189,70.60935 -0.44976,69.84998 -0.46231,-1.77423 -1.97868,-2.38325 -24.93639,-10.00604 -17.84214,-5.92422 -19.47214,-6.32708 -23.63601,-5.85598 -5.251,0.5941 -12.80636,-0.15253 -14.56612,-1.43927 -0.8993,-0.65758 -1.33706,-2.70384 -1.60696,-7.50412 -0.5887,-10.47291 -2.06643,-14.44654 -7.24497,-19.47993 -5.73711,-5.57653 -11.54832,-8.94744 -21.37191,-12.39965 -7.73184,-2.7171 -8.2985,-2.79918 -19.28475,-2.79918 -10.98626,0 -11.55301,0.0821 -19.28485,2.79918 -9.8236,3.45221 -15.63317,6.82312 -21.37039,12.39965 -5.17854,5.03339 -6.65628,9.00702 -7.24498,19.47993 -0.27121,4.82658 -0.70546,6.84482 -1.61754,7.51177 -1.75004,1.27963 -9.49389,2.03229 -14.65617,1.42552 -4.01968,-0.47241 -5.77912,-0.0337 -23.52162,5.85755 -22.97277,7.6277 -24.48783,8.23617 -24.95025,10.01057 -0.19787,0.75937 -0.39989,-30.67365 -0.44976,-69.84998 z m 134.05723,0.86902 c -0.27023,6.8e-4 -0.51983,0.0179 -0.74847,0.0503 -1.52915,0.21697 -1.01685,0.86229 3.68649,4.63634 16.98563,13.62956 25.63532,28.2178 31.93744,53.869 4.38554,17.8499 5.99053,29.09976 6.48264,45.43795 0.37697,12.51402 0.62897,14.77705 1.69689,15.19733 3.935,1.54848 43.63212,14.09116 44.75952,14.14221 0.83328,0.0374 1.54639,-0.72222 1.863,-1.9835 1.0055,-4.00636 -0.30483,-30.08458 -1.99571,-39.71757 -5.18138,-29.51704 -14.6949,-47.04699 -33.96055,-62.57455 -17.48701,-14.09385 -45.34374,-29.07886 -53.72125,-29.05753 z m -41.49364,0.0152 c -5.67119,-0.0628 -25.55358,9.15678 -39.07121,18.20993 -23.14531,15.50106 -33.54887,26.96032 -40.97076,45.13148 -6.37283,15.60252 -9.32668,30.95915 -9.9634,51.79556 -0.44114,14.43833 -0.12333,18.24197 1.52315,18.24197 0.51077,0 10.26451,-2.96574 21.67532,-6.59092 11.4108,-3.62519 21.64956,-6.93509 22.75329,-7.35474 l 2.00793,-0.76226 0.44213,-14.69725 c 0.49199,-16.33217 2.09764,-27.58549 6.48263,-45.43336 6.30212,-25.6512 14.9504,-40.23944 31.93602,-53.86901 4.70334,-3.77403 5.21706,-4.41936 3.68803,-4.63634 -0.15269,-0.0216 -0.32022,-0.0331 -0.50313,-0.0351 z m 16.15169,29.32128 -2.64215,0.51532 c -4.37778,0.85244 -12.11595,5.04237 -18.11085,9.80629 -10.91804,8.67614 -16.64335,17.09439 -20.36729,29.94485 -2.12264,7.32496 -3.94308,21.89662 -3.1361,25.11183 0.48141,1.91802 0.69237,1.796 6.97059,-4.06461 3.56001,-3.3234 8.41134,-7.27299 10.78194,-8.77564 4.194,-2.65849 4.3242,-2.84786 4.82089,-7.0254 1.75026,-14.721 7.74876,-28.40669 17.92935,-40.90527 z m 8.94492,0 3.75197,4.60737 c 10.1807,12.49857 16.1792,26.18427 17.92946,40.90527 0.49669,4.17824 0.62657,4.36643 4.82383,7.0254 2.37202,1.50265 7.17393,5.41257 10.67073,8.68874 5.8361,5.46756 6.40973,5.82249 6.98272,4.31617 0.34324,-0.9026 0.24654,-5.41933 -0.21501,-10.0365 -1.519,-15.19342 -6.34272,-27.89578 -13.8541,-36.48237 -7.34777,-8.39971 -20.26502,-17.11015 -27.44746,-18.50876 z m 62.82442,107.17701 c 0.4002,-0.007 0.61444,0.0489 0.61444,0.16923 0,2.11231 -7.52502,15.84408 -10.41305,19.00122 l -3.24743,3.54923 -18.22359,0.15549 c -10.0231,0.0857 -18.35804,-0.0632 -18.52251,-0.32926 -0.38133,-0.61736 1.90982,-9.4835 2.63603,-10.20119 0.29981,-0.29632 7.39405,-2.3454 15.766,-4.55246 8.37193,-2.20707 18.99781,-5.00902 23.61319,-6.22653 3.71138,-0.97903 6.57671,-1.54645 7.77692,-1.56573 z m -134.97051,0.14636 c 2.35882,-0.006 21.79473,4.75026 39.8868,9.79864 7.55852,2.10911 7.7517,2.22151 8.72533,5.0419 0.54777,1.58648 1.10929,3.96802 1.24713,5.29192 l 0.25003,2.40737 -16.39256,0.17227 c -9.01597,0.095 -17.34818,0.0618 -18.5164,-0.0732 v 9.6e-4 c -3.07892,-0.35486 -7.71886,-6.03521 -11.89189,-14.55702 -1.95129,-3.98465 -3.54778,-7.59282 -3.54778,-8.01793 0,-0.044 0.0819,-0.0651 0.23934,-0.0655 z m 41.83373,47.47329 c -0.34925,0 -1.35911,2.4313 -2.24423,5.40315 -1.40549,4.71949 -9.19561,35.03982 -10.48159,40.79559 -0.40884,1.8296 -0.19667,2.13803 1.68008,2.43783 3.3104,0.52868 74.94157,0.21469 75.48639,-0.33091 0.26423,-0.26455 -1.59529,-8.69509 -4.1332,-18.73435 -5.52647,-21.86032 -7.77779,-29.57131 -8.62929,-29.57131 -0.34925,0 -3.74095,3.16143 -7.53768,7.02538 l -6.90337,7.02539 h -11.39804 -11.39792 l -6.90195,-7.02539 c -3.79672,-3.86395 -7.18996,-7.02538 -7.5392,-7.02538 z"
         style="fill:#f4bb31;fill-opacity:1;fill-rule:evenodd;stroke-width:4.1074;stroke-linecap:round"
         id="rect945" />
      <rect
         style="opacity:0;fill:#212048;fill-rule:evenodd;stroke-width:3.806;stroke-linecap:round"
         id="rect956"
         width="371.73615"
         height="371.73615"
         x="680.01019"
         y="642.72681"
         ry="0" />
    </g>
    <g
       id="g1004"
       inkscape:export-filename="E:\HARDDRIVE\Tanveer\Internal\APIProjects\transformers-api\logos\autobot.png"
       inkscape:export-xdpi="129.12384"
       inkscape:export-ydpi="129.12384">
      <rect
         ry="0"
         y="183.84778"
         x="200.01021"
         height="371.73615"
         width="371.73615"
         id="rect846"
         style="opacity:0;fill:#212048;fill-rule:evenodd;stroke-width:3.806;stroke-linecap:round" />
      <path
         d="m 386.63246,249.88772 c -33.44417,0 -36.32959,0.29832 -54.12545,5.56473 -10.33902,3.05967 -19.23342,6.70162 -19.76754,8.09346 -0.53411,1.39184 0.0386,6.73488 1.27181,11.8754 l 2.24169,9.34665 34.62278,23.13912 c 19.04322,12.72657 35.09312,23.08998 35.66734,23.03097 0.57441,-0.059 16.47938,-10.58567 35.34271,-23.39274 25.31476,-17.18713 34.61018,-24.53488 35.49184,-28.05861 0.65691,-2.62572 1.73832,-7.55064 2.40573,-10.94297 l 1.21585,-6.1652 -19.51756,-6.24727 c -19.14328,-6.12468 -20.19987,-6.24354 -54.8492,-6.24354 z m 119.05988,9.04083 c -0.6063,0.0172 -1.30465,0.1182 -2.09618,0.27225 -2.88829,0.56198 -12.72069,1.58403 -21.85226,2.27513 l -16.60464,1.25691 -2.82355,12.39384 c -1.99192,8.73248 -4.13985,13.31642 -7.26913,15.52678 -2.44239,1.72518 -12.15105,8.34132 -21.57632,14.69877 -14.63526,9.87176 -17.33354,12.52007 -18.48828,18.14878 -1.5422,7.51713 -7.34379,44.19068 -7.34379,46.42743 0,0.81263 1.50382,1.01459 3.34182,0.44755 1.838,-0.56706 11.8562,-2.3911 22.26263,-4.05046 18.73882,-2.98802 19.12323,-3.15423 39.66931,-17.54827 12.51731,-8.76934 21.09147,-16.11735 21.61738,-18.52174 0.4795,-2.19169 2.64404,-12.14693 4.81126,-22.12465 2.16741,-9.97772 5.19338,-23.47302 6.7247,-29.9906 3.6548,-15.5552 3.87174,-19.33567 -0.37295,-19.21172 z m -242.19621,0.37669 c -0.3273,0.01 -0.51903,0.0305 -0.56314,0.0708 -0.29313,0.26784 3.0613,17.15081 7.4557,37.51342 5.20216,24.10429 9.05346,37.83868 11.03621,39.36335 1.67511,1.28798 11.20694,7.92661 21.18466,14.75473 17.62972,12.06467 18.73367,12.51754 39.14703,16.07132 11.55315,2.0113 21.33151,3.75113 21.72928,3.86399 1.05754,0.29996 -3.78313,-36.7236 -6.59026,-50.39957 -0.48065,-2.34121 -9.21025,-9.36178 -22.55728,-18.14131 l -21.77416,-14.32209 -2.35722,-12.08799 c -1.29644,-6.64902 -3.31986,-12.42363 -4.4979,-12.8302 -2.58237,-0.89133 -37.30235,-4.00205 -42.21292,-3.85652 z m 121.45053,20.34183 c 4.78281,0 9.65728,0.0766 13.4681,0.23125 l 13.85576,0.56319 -12.22227,9.07065 c -6.72241,4.98886 -13.13565,9.00664 -14.25124,8.92892 -1.11579,-0.0777 -7.48988,-4.15953 -14.16531,-9.07065 l -12.13654,-8.92892 12.53183,-0.56319 c 3.44589,-0.15467 8.13685,-0.23125 12.91967,-0.23125 z m 98.30393,10.13736 c 0.13921,-0.0265 0.23354,-0.0172 0.27976,0.0298 0.321,0.32099 0.0848,1.88454 -0.52591,3.47611 -1.77479,4.62513 -52.935,38.81728 -52.15626,34.85785 0.56734,-2.88494 48.08993,-37.54338 52.40241,-38.36379 z m -192.79227,2.11474 c 2.34252,0.11153 9.1562,4.29392 22.6541,13.78874 12.60344,8.86558 24.07944,16.77731 25.5,17.58185 1.42075,0.80451 2.28007,2.71015 1.90961,4.23322 -0.4732,1.94567 -7.49007,-1.97047 -23.59039,-13.16959 -12.60343,-8.76676 -24.07542,-16.62478 -25.49617,-17.4625 -1.42075,-0.83775 -2.28008,-2.82357 -1.90961,-4.41226 0.0915,-0.39263 0.39185,-0.58518 0.93246,-0.55946 z m 1.66327,18.94694 c 0.37543,-0.0531 0.8515,0.0909 1.41731,0.44009 6.77702,4.18146 46.67263,32.00755 48.9189,34.11939 1.43469,1.34895 2.29402,3.3244 1.90961,4.38987 -1.00464,2.78364 -53.21552,-33.58983 -53.21552,-37.07331 0,-1.14821 0.34411,-1.78747 0.9697,-1.87604 z m 187.08597,1.49561 c 0.56887,-0.0229 0.77988,0.27475 0.66397,0.87647 -0.36149,1.87717 -11.38892,10.9192 -24.50795,20.09196 -13.11922,9.17278 -24.49974,16.71107 -25.28746,16.75384 -4.2951,0.23347 -0.20261,-5.46324 7.67587,-10.68934 4.96996,-3.29677 16.62699,-11.30012 25.90656,-17.78325 8.92342,-6.23442 13.84258,-9.18111 15.54901,-9.24968 z m -69.49554,9.1639 c -0.6147,0.004 -6.19344,3.37928 -12.39757,7.50416 l -11.28237,7.50046 -11.30471,-7.67574 c -6.21769,-4.22233 -11.74411,-7.23663 -12.28205,-6.69858 -0.53813,0.53806 0.81923,12.61493 3.01356,26.839 2.62877,17.03899 3.98708,35.00278 3.98708,52.65977 v 26.8017 h 16.03405 16.03405 l 1.16735,-28.16677 c 0.6422,-15.49172 2.73876,-39.55282 4.6585,-53.46912 1.91973,-13.91629 2.98663,-25.2987 2.37211,-25.29488 z m 77.13398,22.90787 c -1.29548,0 -20.17027,13.3456 -25.26129,17.86159 -2.36314,2.09622 -4.29663,5.76842 -4.29663,8.16059 0,3.0059 -2.65436,6.17442 -8.59325,10.26044 l -8.59325,5.91158 v 40.96714 c 0,22.5307 0.48581,40.9634 1.07798,40.9634 0.59198,0 9.45964,-7.21808 19.70776,-16.04148 l 18.63361,-16.0452 3.30076,-40.76574 c 1.81413,-22.42262 3.66225,-43.1326 4.11025,-46.02089 0.44837,-2.88829 0.41056,-5.25143 -0.0859,-5.25143 z m -199.75566,1.48816 c -0.87308,0.10064 -1.07359,1.10691 -1.27925,2.75626 -1.1809,9.47001 7.16964,88.15278 9.60019,90.46037 1.33463,1.26733 9.69204,8.40617 18.57403,15.86245 h 0.004 c 8.88161,7.45606 16.39822,13.5575 16.70548,13.5575 0.30725,0 0.5576,-18.69032 0.55569,-41.53405 v -41.53405 l -8.59325,-5.42673 c -6.77091,-4.27764 -8.58962,-6.53362 -8.58962,-10.65951 0,-4.30287 -2.46359,-7.01797 -13.84468,-15.25823 -8.35284,-6.04772 -11.67728,-8.39181 -13.13221,-8.22401 z m 77.58159,27.65207 -14.32209,6.31065 -14.32208,6.30695 -0.5557,42.61566 -0.55932,42.61567 8.11585,7.07898 8.11947,7.07899 2.16321,-5.16937 c 1.18911,-2.84294 4.09554,-10.997 6.45983,-18.11893 l 4.29663,-12.94955 21.98669,0.53707 21.98669,0.53708 5.53864,15.27689 c 3.04507,8.40229 5.95474,16.40462 6.46728,17.78326 0.65519,1.76265 3.19135,0.62912 8.54838,-3.81922 l 7.61992,-6.32559 0.0336,-43.50334 0.0334,-43.49961 -13.84468,-6.28082 -13.84469,-6.28455 -0.52209,30.21064 -0.5259,30.21065 h -20.91254 -20.90872 l -0.5259,-30.3039 z m 40.5084,81.49041 -19.12209,0.54082 -19.12609,0.54081 -4.20325,11.69637 c -2.31292,6.43355 -4.77231,13.95265 -5.46416,16.7091 l -1.25691,5.01273 h 29.63641 c 19.15034,0 29.63239,-0.6997 29.63239,-1.97676 0,-1.08693 -2.26976,-8.84919 -5.04615,-17.2499 z"
         style="fill:#ff0000;stroke-width:1.90961"
         id="path982" />
    </g>
    <g
       id="g1010"
       inkscape:export-filename="E:\HARDDRIVE\Tanveer\Internal\APIProjects\transformers-api\logos\decepticon.png"
       inkscape:export-xdpi="129.12384"
       inkscape:export-ydpi="129.12384">
      <rect
         style="opacity:0;fill:#212048;fill-rule:evenodd;stroke-width:3.806;stroke-linecap:round"
         id="rect882"
         width="371.73615"
         height="371.73615"
         x="680.01019"
         y="183.84778"
         ry="0" />
      <path
         d="m 972.80884,248.07193 c -1.18729,0.44642 -9.16539,9.50245 -18.54402,21.09161 l -18.18872,22.4754 -13.94591,4.28329 c -7.67114,2.35726 -14.84529,4.28667 -15.94233,4.28667 -2.05395,0 -4.84219,8.07666 -6.72602,19.48792 -0.58967,3.57279 -0.3863,6.48118 0.45004,6.46213 0.83633,-0.019 8.77078,-1.89611 17.63388,-4.17163 21.87983,-5.61742 19.91251,-1.69074 -2.38532,4.76034 -9.45623,2.73584 -17.7373,5.85855 -18.40526,6.93919 -1.57376,2.54637 -3.68729,15.03246 -2.70995,16.00988 0.41315,0.41302 8.28627,-1.51166 17.49514,-4.27652 11.19802,-3.36202 16.74056,-4.3464 16.74056,-2.97732 0,1.1259 -9.15933,4.73144 -20.35406,8.01508 -20.17373,5.91734 -20.45037,6.07228 -31.3397,17.25163 l -10.98565,11.27649 -4.60469,-5.21029 c -2.53204,-2.86724 -6.55349,-7.53724 -8.93534,-10.37659 -3.47959,-4.14826 -8.66321,-6.52303 -26.38301,-12.08864 -12.12929,-3.80971 -22.069,-7.82511 -22.08632,-8.92182 -0.0213,-1.29018 5.87652,-0.22017 16.70678,3.03146 9.20627,2.76401 17.08805,5.02423 17.5154,5.02423 0.77155,0 -0.77466,-10.42166 -2.34461,-15.80012 -0.54341,-1.86176 -6.49667,-4.40119 -17.66438,-7.53803 -15.79388,-4.43627 -21.10031,-6.7771 -19.32543,-8.52258 0.41279,-0.40606 8.02954,1.19922 16.93006,3.56601 8.90053,2.36681 16.54084,3.94867 16.97425,3.51528 0.43341,-0.4334 -0.16561,-5.95725 -1.32969,-12.27469 l -2.11803,-11.48638 -16.60874,-5.12572 -16.60873,-5.12574 -18.165,-22.37051 c -9.99185,-12.30497 -18.41929,-21.70785 -18.72659,-20.89538 -0.30731,0.81244 1.05806,9.88174 3.03145,20.15444 1.97339,10.2727 6.21448,32.91632 9.42592,50.32011 5.64509,30.59289 6.12059,32.09665 14.29444,45.3027 4.6499,7.51264 24.43162,39.35678 43.96285,70.76542 19.53123,31.40882 36.04036,56.80895 36.68545,56.44396 2.09327,-1.18383 86.44566,-137.33719 88.12197,-142.23812 2.13501,-6.24194 19.25321,-99.20531 18.60482,-101.0361 -0.0173,-0.0485 -0.0663,-0.0568 -0.14551,-0.027 z m -64.29993,4.11412 c -0.18726,-0.21177 -6.92263,8.55351 -14.96794,19.47777 l -14.62945,19.86348 -12.90049,-0.42292 -12.90412,-0.42291 -14.7748,-19.37966 c -8.12759,-10.65894 -14.96897,-19.18909 -15.20127,-18.95674 -0.2323,0.23234 0.26417,3.10667 1.10293,6.38771 0.83859,3.28102 5.22709,24.28344 9.75401,46.6729 l 8.2317,40.70811 11.4052,13.42501 c 6.27234,7.38383 11.90998,13.42509 12.5284,13.42509 0.61841,0 6.22123,-6.23943 12.45061,-13.86493 9.00516,-11.02325 11.70177,-15.72692 13.1612,-22.95244 1.00956,-4.99837 5.26607,-25.84721 9.45969,-46.33118 4.19346,-20.48397 7.47176,-37.41753 7.28433,-37.62929 z m -52.52611,60.14867 h 9.92326 9.92671 l -4.48638,14.72421 c -2.4683,8.09831 -4.94872,14.72421 -5.51136,14.72421 -0.56281,0 -3.00876,-6.6259 -5.43704,-14.72421 z m 97.87269,52.35693 c -0.2096,-0.019 -0.83876,0.44987 -1.74923,1.3432 -1.92888,1.89249 -54.02798,85.19445 -71.1952,113.83511 -1.5133,2.52477 1.26888,1.40157 32.64566,-13.1747 12.38565,-5.7537 23.09501,-11.46323 23.79501,-12.68742 0.70001,-1.22436 4.45,-21.28047 8.33304,-44.56845 3.88303,-23.28815 7.50934,-43.16584 8.06246,-44.17263 0.20735,-0.37763 0.23402,-0.56385 0.10826,-0.57511 z m -34.49969,0.55485 c 0.17461,0 0.26383,0.0173 0.26383,0.0675 0,0.42441 -1.75392,3.54005 -3.89759,6.92575 -2.61883,4.13612 -7.87589,8.24521 -16.0234,12.52164 -15.13077,7.94172 -14.72421,7.76209 -14.72421,6.479 0,-0.58741 1.92454,-4.85881 4.27314,-9.49348 4.06492,-8.02175 4.89779,-8.6386 17.32259,-12.81612 6.28153,-2.11197 11.56319,-3.62406 12.78564,-3.68434 z m -104.26715,0.98115 c 1.9112,0.0208 5.84343,1.22072 12.44715,3.45101 9.9023,3.34395 11.14588,4.33896 15.06252,12.0683 2.34774,4.63293 4.26639,8.84007 4.26639,9.34815 0,4.05833 -25.75074,-11.78561 -30.49038,-18.76055 -2.85805,-4.20593 -3.74306,-6.13359 -1.28568,-6.10691 z m -35.37604,0.5583 c -0.99605,0.99623 11.41248,74.25471 14.04759,82.93524 1.94879,6.41993 2.76573,6.95451 29.719,19.42366 15.24389,7.0522 28.00129,12.85233 28.34895,12.88697 0.34784,0.0346 -0.49144,-1.68947 -1.86772,-3.83314 -1.37611,-2.14367 -17.57066,-28.262 -35.98822,-58.04093 -18.41756,-29.77911 -33.83537,-53.79603 -34.2596,-53.3718 z"
         style="fill:#523250;stroke-width:1.73226;fill-opacity:1"
         id="path984" />
    </g>
  </g>
  <inkscape:templateinfo>
    <inkscape:name>Dark Canvas</inkscape:name>
    <inkscape:date>2020-07-13</inkscape:date>
  </inkscape:templateinfo>
  <inkscape:templateinfo>
    <inkscape:name>Dark Background</inkscape:name>
    <inkscape:date>2020-07-14</inkscape:date>
  </inkscape:templateinfo>
</svg>
